<svg xmlns="http://www.w3.org/2000/svg" width="1024" height="1024" viewBox="0 0 1024 1024" version="1.1"><path d="M 199 257.817 C 199 258.267, 201.447 259.406, 204.438 260.349 C 212.238 262.808, 214.657 266.067, 215.474 275.222 C 215.831 279.225, 215.983 317.825, 215.812 361 C 215.508 437.427, 215.447 439.588, 213.500 442.845 C 211.298 446.528, 205.495 450, 201.540 450 C 200.143 450, 199 450.450, 199 451 C 199 451.630, 205.667 452, 217 452 C 233.733 452, 239.779 451.037, 231.490 449.692 C 226.819 448.934, 222.611 445.808, 220.623 441.619 C 219.167 438.550, 219 429.853, 219 357.099 C 219 291.563, 219.247 276, 220.289 276 C 221.529 276, 241.202 308.527, 298.915 406 L 325.855 451.500 343.928 451.773 C 355.753 451.951, 362 451.692, 362 451.023 C 362 450.460, 360.942 450, 359.648 450 C 356.429 450, 351 446.164, 348.739 442.293 C 346.958 439.243, 346.861 435.131, 346.685 354.796 C 346.506 273.416, 346.566 270.391, 348.410 267.344 C 350.504 263.884, 355.688 260.601, 360.750 259.529 C 368.477 257.893, 362.914 257, 345 257 C 333.246 257, 326 257.374, 326 257.981 C 326 258.520, 327.238 259.221, 328.750 259.537 C 330.262 259.853, 333.342 260.947, 335.594 261.967 C 343.416 265.512, 343 260.433, 343 352.401 C 343 437.707, 342.970 438.286, 338.923 431.244 C 338.056 429.735, 332.014 419.500, 325.495 408.500 C 313.331 387.974, 301.529 367.964, 263.562 303.500 C 251.576 283.150, 240.425 264.363, 238.781 261.750 L 235.792 257 217.396 257 C 207.278 257, 199 257.368, 199 257.817 M 392.945 336.554 C 384.597 342.453, 370.783 350.269, 364.750 352.509 C 359.331 354.520, 358.238 356.595, 363.250 355.355 C 369.190 353.886, 372.935 354.481, 375.805 357.348 L 378.500 360.042 379.023 391.339 L 379.547 422.637 382.765 429.174 C 386.780 437.330, 393.837 444.080, 402.777 448.315 C 409.121 451.321, 410.148 451.500, 421 451.500 C 431.559 451.500, 432.964 451.272, 438.178 448.712 C 445.315 445.207, 453.796 436.203, 457.062 428.663 C 460.951 419.683, 462 421.109, 462 435.377 L 462 447.753 471.750 448.927 C 477.113 449.572, 483.945 450.528, 486.934 451.050 C 497.047 452.818, 498.819 451.873, 491.715 448.500 C 489.398 447.400, 486.490 444.971, 485.251 443.102 L 483 439.704 483 385.852 C 483 355.917, 482.613 332, 482.129 332 C 481.649 332, 475.610 335.771, 468.708 340.380 C 461.806 344.990, 452.973 350.011, 449.079 351.538 C 445.186 353.066, 442 354.695, 442 355.158 C 442 356.234, 442.232 356.222, 447.561 354.880 C 450.980 354.019, 452.711 354.052, 455.051 355.021 C 460.261 357.179, 461.410 360.808, 461.828 376.436 C 462.792 412.503, 453.710 437.124, 436.300 445.642 C 431.940 447.775, 429.352 448.331, 423.659 448.356 C 413.122 448.403, 408.317 445.290, 403.799 435.488 C 401.513 430.528, 401.498 430.219, 401.206 381.250 C 401.044 354.163, 400.570 332, 400.151 332 C 399.733 332, 396.490 334.049, 392.945 336.554 M 554.500 333.819 C 524.024 342.871, 502.758 366.992, 502.819 392.438 C 502.844 402.626, 504.212 408.626, 508.586 417.734 C 515.391 431.905, 526.795 442.259, 542.500 448.527 C 548.131 450.775, 551.557 451.411, 560.019 451.780 C 579.097 452.611, 590.630 448.201, 604.699 434.693 C 609.265 430.310, 613 426.336, 613 425.862 C 613 425.388, 610.412 425, 607.248 425 L 601.497 425 599.200 429.329 C 596.483 434.451, 591.030 440.279, 585.571 443.897 C 582.093 446.201, 580.659 446.497, 573.071 446.471 C 565.332 446.444, 563.821 446.104, 557.500 442.971 C 543.099 435.831, 529.032 417.094, 525.560 400.429 C 524.778 396.679, 519.910 398.990, 570.946 378.873 C 593.202 370.100, 611.606 362.727, 611.845 362.488 C 612.563 361.771, 604.200 351.219, 597.637 344.560 C 594.262 341.136, 589.250 337.025, 586.500 335.425 C 581.951 332.778, 580.552 332.494, 571 332.276 C 563.268 332.100, 558.918 332.507, 554.500 333.819 M 609 332.793 C 609 333.229, 610.971 334.112, 613.381 334.757 C 619.364 336.357, 623.785 340.356, 626.890 346.978 C 628.326 350.038, 638.500 374.926, 649.500 402.284 C 668.055 448.433, 669.664 452.007, 671.765 451.763 C 673.772 451.530, 676.486 445.393, 695.542 398.008 C 707.374 368.587, 718.127 342.895, 719.438 340.914 C 721.893 337.205, 727.206 334, 730.901 334 C 732.056 334, 733 333.550, 733 333 C 733 332.383, 727.833 332, 719.500 332 C 711.167 332, 706 332.383, 706 333 C 706 333.550, 706.800 334, 707.777 334 C 710.901 334, 714 336.925, 714 339.874 C 714 341.392, 708.143 357.229, 700.985 375.067 C 683.145 419.522, 682.938 420, 681.519 420 C 679.864 420, 650.906 348.344, 650.266 342.666 C 649.833 338.827, 650.096 338.070, 652.523 336.161 C 654.034 334.972, 655.884 334, 656.635 334 C 657.386 334, 658 333.550, 658 333 C 658 332.361, 649.167 332, 633.500 332 C 620.025 332, 609 332.357, 609 332.793 M 763.656 333.581 C 756.647 335.278, 743.208 342.085, 739.886 345.621 L 737.500 348.161 747.736 358.081 C 753.366 363.536, 758.172 368, 758.416 368 C 758.661 368, 760.472 364.650, 762.441 360.555 C 766.776 351.544, 773.965 343.855, 781.213 340.481 C 800.002 331.734, 822.341 346.568, 817.037 364.271 C 815.450 369.567, 806.454 378.507, 798.498 382.694 C 795.197 384.432, 783.047 389.069, 771.498 393 C 747.670 401.111, 742.377 403.643, 735.949 410.003 C 722.494 423.318, 729.399 445.975, 748.485 451.135 C 755.440 453.015, 766.788 451.775, 773.038 448.452 C 780.215 444.636, 798.147 426.578, 804 417.272 C 806.475 413.337, 809.035 410.091, 809.688 410.059 C 810.554 410.016, 810.961 414.995, 811.188 428.419 C 811.360 438.550, 811.737 447.074, 812.026 447.361 C 812.315 447.649, 818.390 448.600, 825.526 449.474 C 832.662 450.349, 839.959 451.462, 841.742 451.949 C 846.736 453.313, 846.603 451.361, 841.550 449.125 C 833.335 445.491, 833.296 445.314, 832.701 409.168 C 832.119 373.746, 831.388 368.410, 825.462 356.298 C 819.445 344, 810.228 336.916, 795.825 333.521 C 787.945 331.663, 771.451 331.694, 763.656 333.581 M 549.946 340.689 C 535.236 347.954, 524.063 367.584, 524.015 386.250 C 524.002 391.147, 524.270 392, 525.818 392 C 526.818 392, 533.005 389.831, 539.568 387.181 C 546.131 384.530, 558.362 379.749, 566.750 376.557 C 575.138 373.364, 582 370.390, 582 369.948 C 582 368.137, 573.714 350.215, 571.166 346.513 C 567.668 341.432, 562.581 338, 558.548 338 C 556.813 338, 552.942 339.210, 549.946 340.689 M 812.437 378.085 C 808.426 382.299, 797.952 390.106, 779.780 402.428 C 771.376 408.127, 762.400 414.642, 759.834 416.906 C 751.657 424.119, 748.943 433.114, 752.956 439.696 C 759.186 449.914, 770.769 447.668, 785.542 433.378 C 799.518 419.859, 813.799 395.190, 817.457 378.250 C 818.379 373.982, 816.405 373.917, 812.437 378.085 M 237.108 476.476 C 227.225 483.921, 214.902 490.862, 205.925 494.039 C 198.396 496.704, 196.723 497.935, 197.945 499.912 C 198.677 501.096, 199.663 500.961, 204.044 499.076 C 212.202 495.567, 218.060 497.731, 220.933 505.315 C 221.662 507.239, 222 539.124, 222 606.065 C 222 690.747, 222.195 704, 223.443 704 C 224.237 704, 225.690 702.640, 226.672 700.977 C 228.847 697.297, 234.010 693.607, 239.876 691.541 C 245.637 689.512, 247.624 689.596, 251.016 692.012 C 255.586 695.266, 268.030 700.816, 274.460 702.468 C 300.402 709.135, 330.555 694.029, 343.348 667.957 C 349.371 655.681, 351.048 649.056, 351.716 634.890 C 352.423 619.876, 350.596 611.120, 343.807 597 C 339.390 587.812, 337.681 585.435, 330.130 577.974 C 316.854 564.858, 304.463 559.626, 287.004 559.763 C 274.403 559.862, 262.119 563.589, 252.846 570.128 C 251.386 571.158, 249.698 572, 249.096 572 C 248.316 572, 248 557.301, 248 521 C 248 480.826, 247.735 470.016, 246.750 470.077 C 246.063 470.119, 241.724 472.998, 237.108 476.476 M 457.678 492.448 C 435.050 496.457, 412.305 508.006, 395.647 523.943 C 377.580 541.228, 364.414 566.617, 360.934 590.877 C 359.271 602.474, 360.264 625.128, 362.899 635.693 C 373.567 678.466, 405.269 710.300, 449 722.151 C 456.496 724.182, 459.803 724.456, 477 724.471 C 495.303 724.486, 497.114 724.316, 506.500 721.701 C 543.620 711.358, 573.397 684.405, 586.676 649.127 C 591.838 635.415, 593.313 626.617, 593.402 609 C 593.490 591.715, 592.835 587.056, 588.275 572.500 C 576.304 534.289, 544.666 504.508, 505.294 494.390 C 492.965 491.222, 469.908 490.281, 457.678 492.448 M 481.625 507.554 C 471.029 509.659, 462.500 512.749, 450.588 518.797 C 424.461 532.062, 402.916 553.981, 389.939 580.500 C 374.135 612.795, 372.838 644.868, 386.241 672 C 391.289 682.220, 402.789 694.378, 413 700.288 C 444.171 718.333, 489.587 711.742, 524.212 684.148 C 533.373 676.848, 546.632 662.862, 553.173 653.599 C 568.962 631.241, 577.851 603.226, 576.685 579.500 C 576.013 565.847, 574.082 558.146, 568.304 546.084 C 564.465 538.068, 562.434 535.301, 554.647 527.469 C 546.854 519.632, 544.093 517.584, 536 513.634 C 530.722 511.058, 523.249 508.332, 519.185 507.499 C 510.184 505.655, 491.044 505.683, 481.625 507.554 M 641.576 523.250 C 639.044 532.022, 634.844 541.410, 630.653 547.664 C 623.985 557.618, 619.855 560, 609.269 560 C 602.746 560, 601.894 560.211, 602.188 561.750 C 602.468 563.218, 603.845 563.547, 610.731 563.790 L 618.940 564.080 619.220 623.790 C 619.497 682.880, 619.523 683.542, 621.670 687.553 C 630.379 703.821, 653.579 708.908, 673.265 698.865 C 681.265 694.783, 690.207 684.216, 691.614 677.179 C 692.598 672.262, 689.517 673.043, 687.191 678.301 C 680.717 692.937, 664.191 700.015, 653.302 692.816 C 650.853 691.197, 648.401 688.393, 647.121 685.750 C 645.033 681.438, 645 680.442, 645 622.684 L 645 564 666.833 564 C 678.842 564, 688.936 563.731, 689.264 563.402 C 689.593 563.073, 689.620 562.173, 689.324 561.402 C 688.885 560.258, 684.753 560, 666.893 560 L 645 560 645 541 C 645 524.605, 644.790 522, 643.469 522 C 642.626 522, 641.775 522.563, 641.576 523.250 M 757 559.637 C 742.549 561.300, 724.700 568.176, 716.619 575.195 L 712.738 578.566 725.518 590.783 C 732.548 597.502, 738.682 603, 739.150 603 C 739.617 603, 740 602.377, 740 601.616 C 740 600.854, 741.817 596.602, 744.037 592.165 C 753.313 573.633, 769.016 564.102, 785.384 567.070 C 804.689 570.570, 814.335 586.576, 806.629 602.325 C 800.875 614.088, 787.954 621.698, 754.722 632.900 C 724.452 643.104, 717.735 646.253, 710.623 653.577 C 705.177 659.184, 703 664.525, 703 672.278 C 703 690.400, 714.734 702.417, 733.699 703.717 C 748.230 704.713, 757.269 700.584, 772.389 686.047 C 780.741 678.016, 794.242 661.301, 797.562 654.879 C 798.381 653.296, 799.715 652, 800.526 652 C 801.783 652, 802 655.443, 802 675.358 L 802 698.717 814.250 699.921 C 820.987 700.583, 829.650 701.771, 833.500 702.562 C 841.999 704.306, 842.014 704.306, 841.941 702.750 C 841.909 702.063, 839.566 700.365, 836.734 698.978 C 827.380 694.395, 827.587 695.407, 826.933 651 C 826.298 607.837, 825.806 604.002, 819.036 589.413 C 812.617 575.583, 800.199 565.738, 784 561.638 C 778.041 560.130, 762.639 558.989, 757 559.637 M 269.764 566.996 C 261.945 569.350, 251.856 579.325, 246.997 589.506 C 232.663 619.541, 238.764 657.386, 261.679 680.570 C 281.365 700.486, 307.439 702.640, 318.926 685.299 C 330.648 667.601, 330.710 637.487, 319.086 607.391 C 314.379 595.204, 309.257 587.234, 300.449 578.392 C 294.128 572.046, 291.129 569.818, 286.649 568.142 C 280.792 565.950, 274.626 565.532, 269.764 566.996 M 804.316 613.250 C 800.068 618.476, 790.030 626.507, 775.744 636.110 C 746.735 655.607, 735.020 665.304, 730.923 673.210 C 725.370 683.924, 732.957 697, 744.726 697 C 758.682 697, 784.288 671.421, 798.417 643.365 C 803.336 633.597, 809 617.669, 809 613.602 C 809 610.357, 806.802 610.192, 804.316 613.250" stroke="none" fill="#000000" fill-rule="evenodd"/><path d="M 1 512 L 1 1023 512 1023 L 1023 1023 1023 512 L 1023 1 512 1 L 1 1 1 512 M 202 258.342 C 202 259.080, 203.767 260.213, 205.926 260.860 C 212.109 262.712, 214.706 266.618, 215.474 275.222 C 215.831 279.225, 215.983 317.825, 215.812 361 L 215.500 439.500 213.241 443.132 C 211.999 445.130, 209.636 447.322, 207.991 448.004 C 206.346 448.685, 205 449.863, 205 450.621 C 205 451.719, 207.544 452, 217.500 452 C 226.865 452, 230 451.685, 230 450.744 C 230 450.053, 228.656 448.893, 227.012 448.166 C 225.369 447.438, 223.007 445.416, 221.762 443.672 L 219.500 440.500 219.233 357.250 C 219.086 311.462, 219.311 274.013, 219.733 274.030 C 220.579 274.063, 224.795 281.075, 284.651 382 L 325.870 451.500 341.435 451.775 C 358.241 452.073, 360.017 451.457, 353.760 447.500 C 352.021 446.400, 349.743 444.031, 348.699 442.236 C 346.877 439.105, 346.793 435.523, 346.650 354.736 C 346.505 273.449, 346.567 270.390, 348.410 267.344 C 350.369 264.108, 356.508 260, 359.386 260 C 360.274 260, 361 259.325, 361 258.500 C 361 257.227, 358.500 257, 344.500 257 C 330.500 257, 328 257.227, 328 258.500 C 328 259.343, 328.893 260, 330.040 260 C 331.162 260, 333.800 260.878, 335.902 261.950 C 343.377 265.763, 343 260.934, 343 352.901 C 343 400.968, 342.626 435, 342.099 435 C 341.603 435, 340.329 433.538, 339.268 431.750 C 322.464 403.449, 307.043 377.327, 263.562 303.500 C 251.576 283.150, 240.425 264.363, 238.781 261.750 L 235.792 257 218.896 257 C 205.430 257, 202 257.272, 202 258.342 M 469 340.089 C 462.675 344.432, 455.589 348.776, 453.254 349.743 C 448.801 351.586, 447.551 354, 451.050 354 C 454.353 354, 458.502 356.630, 460.003 359.675 C 461.921 363.567, 462.522 387.812, 461 399.903 C 458.091 423.015, 449.310 439.277, 436.300 445.642 C 431.940 447.775, 429.352 448.331, 423.659 448.356 C 413.122 448.403, 408.317 445.290, 403.799 435.488 C 401.514 430.531, 401.498 430.197, 401.206 381.750 C 400.962 341.397, 400.676 333, 399.548 333 C 398.798 333, 393.966 335.813, 388.810 339.250 C 383.654 342.688, 376.662 346.850, 373.272 348.500 C 369.881 350.150, 367.083 352.012, 367.054 352.639 C 367.024 353.265, 368.503 354.059, 370.340 354.404 C 372.177 354.749, 374.765 356.184, 376.090 357.594 L 378.500 360.157 379.023 391.397 L 379.547 422.637 382.765 429.174 C 386.780 437.330, 393.837 444.080, 402.777 448.315 C 409.121 451.321, 410.148 451.500, 421 451.500 C 431.559 451.500, 432.964 451.272, 438.178 448.712 C 445.708 445.014, 453.838 436.166, 457.563 427.615 C 459.148 423.977, 460.795 421, 461.223 421 C 461.650 421, 462 427.075, 462 434.500 C 462 444.982, 462.294 448, 463.314 448 C 465.261 448, 487.061 450.891, 490.250 451.572 C 494.025 452.378, 493.877 450.006, 490.015 447.808 C 488.380 446.878, 486.134 444.628, 485.025 442.808 C 483.068 439.599, 483.007 437.889, 483.004 385.750 C 483.001 343.367, 482.736 332.020, 481.750 332.096 C 481.063 332.149, 475.325 335.746, 469 340.089 M 554.500 333.819 C 524.024 342.871, 502.758 366.992, 502.819 392.438 C 502.844 402.626, 504.212 408.626, 508.586 417.734 C 515.391 431.905, 526.795 442.259, 542.500 448.527 C 548.131 450.775, 551.557 451.411, 560.019 451.780 C 572.812 452.337, 579.637 451.048, 589.188 446.270 C 596.533 442.595, 612 429.101, 612 426.367 C 612 425.384, 610.523 425, 606.748 425 C 601.575 425, 601.462 425.065, 599.200 429.329 C 596.483 434.451, 591.030 440.279, 585.571 443.897 C 582.093 446.201, 580.659 446.497, 573.071 446.471 C 565.332 446.444, 563.821 446.104, 557.500 442.971 C 543.081 435.822, 529.035 417.100, 525.550 400.384 C 524.777 396.676, 520.412 398.725, 574 377.636 C 597.105 368.544, 610.608 362.726, 610.795 361.783 C 611.466 358.399, 594.728 340.250, 586.500 335.439 C 581.942 332.774, 580.571 332.494, 571 332.276 C 563.268 332.100, 558.918 332.507, 554.500 333.819 M 613 333.299 C 613 334.014, 614.489 335.137, 616.309 335.795 C 621.154 337.547, 624.661 341.737, 628.285 350.105 C 630.053 354.186, 640.050 378.789, 650.500 404.777 C 668.117 448.588, 669.665 452.008, 671.765 451.764 C 673.771 451.530, 676.487 445.390, 695.542 398.008 C 707.374 368.587, 718.141 342.874, 719.469 340.868 C 720.797 338.861, 723.260 336.610, 724.942 335.866 C 730.721 333.307, 728.712 332, 719 332 C 709.667 332, 707.679 333.070, 712 335.768 C 713.208 336.522, 714.001 338.103, 714.003 339.758 C 714.008 343.379, 682.792 421.092, 681.500 420.678 C 679.891 420.162, 650.941 347.955, 650.323 342.917 C 649.821 338.825, 650.042 338.112, 652.380 336.273 C 657.430 332.301, 656.137 332, 634 332 C 617.443 332, 613 332.275, 613 333.299 M 763.782 333.553 C 753.335 336.086, 739 344.374, 739 347.881 C 739 349.907, 756.183 367.010, 758.188 366.980 C 758.910 366.969, 760.960 363.852, 762.745 360.052 C 766.715 351.600, 774.068 343.807, 781.213 340.481 C 800.002 331.734, 822.341 346.568, 817.037 364.271 C 815.450 369.567, 806.454 378.507, 798.498 382.694 C 795.197 384.432, 783.047 389.069, 771.498 393 C 747.670 401.111, 742.377 403.643, 735.949 410.003 C 722.494 423.318, 729.399 445.975, 748.485 451.135 C 755.454 453.019, 766.789 451.775, 773.038 448.441 C 780.645 444.384, 797.252 427.556, 804.556 416.507 L 810.500 407.514 811 427.176 C 811.275 437.990, 811.737 447.074, 812.026 447.362 C 812.484 447.817, 836.002 451, 838.913 451 C 840.710 451, 840.138 448.567, 838.031 447.252 C 833.572 444.467, 833.248 442.143, 832.699 409 C 832.115 373.760, 831.377 368.388, 825.462 356.298 C 819.445 344, 810.228 336.916, 795.825 333.521 C 787.992 331.674, 771.463 331.691, 763.782 333.553 M 549.946 340.689 C 538.689 346.248, 528.970 359.539, 525.549 374.053 C 524.127 380.086, 523.404 393, 524.488 393 C 524.756 393, 532.744 389.917, 542.238 386.148 C 551.732 382.379, 564.563 377.367, 570.750 375.009 C 576.938 372.651, 582 370.367, 582 369.933 C 582 368.134, 573.703 350.199, 571.166 346.513 C 567.668 341.432, 562.581 338, 558.548 338 C 556.813 338, 552.942 339.210, 549.946 340.689 M 813.138 377.081 C 809.049 381.837, 799.948 388.752, 779.780 402.428 C 761.340 414.933, 755.826 419.662, 753.084 425.327 C 749.439 432.857, 751.167 440.442, 757.469 444.571 C 771.166 453.546, 803.400 420.894, 814.943 386.352 C 817.954 377.344, 818.723 372.918, 817.250 373.085 C 816.837 373.131, 814.987 374.929, 813.138 377.081 M 237.047 476.520 C 226.855 484.197, 216.108 490.247, 206 493.997 C 200.256 496.129, 198.425 497.274, 198.180 498.890 C 197.782 501.520, 198.565 501.522, 204.475 498.908 C 212.098 495.536, 218.116 497.879, 220.933 505.315 C 221.662 507.239, 222 539.124, 222 606.065 C 222 690.747, 222.195 704, 223.443 704 C 224.237 704, 225.690 702.640, 226.672 700.977 C 228.847 697.297, 234.010 693.607, 239.876 691.541 C 245.637 689.512, 247.624 689.596, 251.016 692.012 C 255.586 695.266, 268.030 700.816, 274.460 702.468 C 300.402 709.135, 330.555 694.029, 343.348 667.957 C 349.371 655.681, 351.048 649.056, 351.716 634.890 C 352.423 619.876, 350.596 611.120, 343.807 597 C 339.390 587.812, 337.681 585.435, 330.130 577.974 C 316.854 564.858, 304.463 559.626, 287.004 559.763 C 274.403 559.862, 262.119 563.589, 252.846 570.128 C 251.386 571.158, 249.698 572, 249.096 572 C 248.316 572, 248 557.301, 248 521 C 248 480.826, 247.735 470.016, 246.750 470.077 C 246.063 470.119, 241.696 473.018, 237.047 476.520 M 457.678 492.448 C 435.050 496.457, 412.305 508.006, 395.647 523.943 C 377.580 541.228, 364.414 566.617, 360.934 590.877 C 359.271 602.474, 360.264 625.128, 362.899 635.693 C 373.567 678.466, 405.269 710.300, 449 722.151 C 456.496 724.182, 459.803 724.456, 477 724.471 C 495.303 724.486, 497.114 724.316, 506.500 721.701 C 543.620 711.358, 573.397 684.405, 586.676 649.127 C 591.838 635.415, 593.313 626.617, 593.402 609 C 593.490 591.715, 592.835 587.056, 588.275 572.500 C 576.304 534.289, 544.666 504.508, 505.294 494.390 C 492.965 491.222, 469.908 490.281, 457.678 492.448 M 496 505.675 C 478.911 507.198, 465.981 510.928, 450.588 518.774 C 424.401 532.123, 402.907 553.998, 389.939 580.500 C 374.135 612.795, 372.838 644.868, 386.241 672 C 391.289 682.220, 402.789 694.378, 413 700.288 C 444.171 718.333, 489.587 711.742, 524.212 684.148 C 533.373 676.848, 546.632 662.862, 553.173 653.599 C 568.962 631.241, 577.851 603.226, 576.685 579.500 C 576.013 565.847, 574.082 558.146, 568.304 546.084 C 564.465 538.068, 562.434 535.301, 554.647 527.469 C 546.859 519.638, 544.088 517.581, 536 513.629 C 524.017 507.775, 508.055 504.601, 496 505.675 M 641.576 523.250 C 639.044 532.022, 634.844 541.410, 630.653 547.664 C 623.985 557.618, 619.855 560, 609.269 560 C 602.746 560, 601.894 560.211, 602.188 561.750 C 602.468 563.218, 603.845 563.547, 610.731 563.790 L 618.940 564.080 619.220 623.790 C 619.497 682.880, 619.523 683.542, 621.670 687.553 C 630.379 703.821, 653.579 708.908, 673.265 698.865 C 681.265 694.783, 690.207 684.216, 691.614 677.179 C 692.598 672.262, 689.517 673.043, 687.191 678.301 C 680.717 692.937, 664.191 700.015, 653.302 692.816 C 650.853 691.197, 648.401 688.393, 647.121 685.750 C 645.033 681.438, 645 680.442, 645 622.684 L 645 564 667 564 C 688.333 564, 689 563.939, 689 562 C 689 560.061, 688.333 560, 667 560 L 645 560 645 541 C 645 524.605, 644.790 522, 643.469 522 C 642.626 522, 641.775 522.563, 641.576 523.250 M 434.024 558.583 C 423.091 561.561, 415.078 568.095, 410.211 578 C 407.850 582.806, 407.508 584.699, 407.509 593 C 407.510 601.367, 407.827 603.097, 410.171 607.500 C 413.585 613.916, 420.034 620.118, 427 623.684 C 432.051 626.270, 433.377 626.496, 443.250 626.449 C 449.163 626.420, 453.999 626.420, 453.999 626.449 C 453.998 626.477, 453.336 630.255, 452.529 634.844 C 450.816 644.577, 447.112 653.335, 444.004 654.998 C 438.492 657.948, 432.218 650.493, 431.252 639.847 C 430.662 633.335, 429.767 632.378, 425.712 633.919 C 414.378 638.228, 417.971 651.464, 432 657.082 C 433.925 657.853, 438.215 658.456, 441.534 658.422 C 459.130 658.241, 473.752 639.202, 477.139 612.060 C 481.341 578.394, 459.724 551.581, 434.024 558.583 M 510.372 559.212 C 501.511 562.066, 490.824 574.667, 486.814 586.988 C 484.132 595.232, 483.214 613.501, 485.038 622.368 C 489.043 641.841, 503.820 658, 517.622 658 C 527.845 658, 539.089 650.594, 545.417 639.691 C 550.723 630.552, 552.500 622.599, 552.500 608 C 552.500 593.427, 551.575 589.208, 545.888 577.832 C 538.560 563.175, 523.149 555.096, 510.372 559.212 M 757 559.637 C 748.170 560.653, 737.831 563.512, 730.500 566.965 C 721.337 571.281, 714 576.370, 714 578.409 C 714 580.055, 736.718 602.015, 738.371 601.967 C 738.992 601.949, 741.393 597.958, 743.706 593.099 C 752.864 573.861, 768.609 564.028, 785.384 567.070 C 804.689 570.570, 814.335 586.576, 806.629 602.325 C 800.875 614.088, 787.954 621.698, 754.722 632.900 C 724.452 643.104, 717.735 646.253, 710.623 653.577 C 705.177 659.184, 703 664.525, 703 672.278 C 703 690.400, 714.734 702.417, 733.699 703.717 C 743.088 704.360, 750.876 702.476, 758.500 697.715 C 769.415 690.900, 790.368 667.792, 798.087 654.060 C 799.342 651.827, 800.735 650, 801.184 650 C 801.633 650, 802 660.961, 802 674.358 L 802 698.717 814.250 699.921 C 820.987 700.583, 829.650 701.771, 833.500 702.562 C 841.999 704.306, 842.014 704.306, 841.941 702.750 C 841.909 702.063, 839.566 700.365, 836.734 698.978 C 827.380 694.395, 827.587 695.407, 826.933 651 C 826.298 607.837, 825.806 604.002, 819.036 589.413 C 812.617 575.583, 800.199 565.738, 784 561.638 C 778.041 560.130, 762.639 558.989, 757 559.637 M 439.172 561.255 C 433.176 564.140, 429.444 579.123, 430.245 597.092 C 431.018 614.424, 435.201 624, 442 624 C 449.117 624, 453.128 614.325, 453.767 595.617 C 454.394 577.279, 451.679 565.691, 445.791 561.566 C 443.211 559.759, 442.365 559.719, 439.172 561.255 M 512.617 565.250 C 508.634 572.111, 506.846 582.614, 506.276 602.500 C 505.718 621.966, 506.745 632.883, 510.198 644.191 C 512.495 651.712, 514.985 655, 518.384 655 C 522.636 655, 525.552 649.883, 528.708 636.883 C 531.260 626.369, 531.238 589.892, 528.673 579.117 C 525.485 565.726, 522.672 561, 517.887 561 C 515.643 561, 514.592 561.848, 512.617 565.250 M 269.764 566.996 C 261.945 569.350, 251.856 579.325, 246.997 589.506 C 232.663 619.541, 238.764 657.386, 261.679 680.570 C 281.365 700.486, 307.439 702.640, 318.926 685.299 C 330.648 667.601, 330.710 637.487, 319.086 607.391 C 314.379 595.204, 309.257 587.234, 300.449 578.392 C 294.128 572.046, 291.129 569.818, 286.649 568.142 C 280.792 565.950, 274.626 565.532, 269.764 566.996 M 805.547 611.796 C 800.477 618.156, 791.157 625.751, 775.550 636.240 C 746.751 655.596, 735.011 665.322, 730.923 673.210 C 725.370 683.924, 732.957 697, 744.726 697 C 758.682 697, 784.288 671.421, 798.417 643.365 C 804.981 630.332, 811.872 607.888, 809.262 608.046 C 808.843 608.072, 807.171 609.759, 805.547 611.796" stroke="none" fill="#ffffff" fill-rule="evenodd"/><path d="M 434.024 558.583 C 423.091 561.561, 415.078 568.095, 410.211 578 C 407.850 582.806, 407.508 584.699, 407.509 593 C 407.510 601.367, 407.827 603.097, 410.171 607.500 C 413.585 613.916, 420.034 620.118, 427 623.684 C 432.051 626.270, 433.377 626.496, 443.250 626.449 C 449.163 626.420, 453.999 626.420, 453.999 626.449 C 453.998 626.477, 453.336 630.255, 452.529 634.844 C 450.816 644.577, 447.112 653.335, 444.004 654.998 C 438.492 657.948, 432.218 650.493, 431.252 639.847 C 430.662 633.335, 429.767 632.378, 425.712 633.919 C 414.378 638.228, 417.971 651.464, 432 657.082 C 433.925 657.853, 438.215 658.456, 441.534 658.422 C 459.130 658.241, 473.752 639.202, 477.139 612.060 C 481.341 578.394, 459.724 551.581, 434.024 558.583 M 510.372 559.212 C 501.511 562.066, 490.824 574.667, 486.814 586.988 C 484.132 595.232, 483.214 613.501, 485.038 622.368 C 489.043 641.841, 503.820 658, 517.622 658 C 527.845 658, 539.089 650.594, 545.417 639.691 C 550.723 630.552, 552.500 622.599, 552.500 608 C 552.500 593.427, 551.575 589.208, 545.888 577.832 C 538.560 563.175, 523.149 555.096, 510.372 559.212 M 439.172 561.255 C 433.176 564.140, 429.444 579.123, 430.245 597.092 C 431.018 614.424, 435.201 624, 442 624 C 449.117 624, 453.128 614.325, 453.767 595.617 C 454.394 577.279, 451.679 565.691, 445.791 561.566 C 443.211 559.759, 442.365 559.719, 439.172 561.255 M 512.617 565.250 C 508.634 572.111, 506.846 582.614, 506.276 602.500 C 505.718 621.966, 506.745 632.883, 510.198 644.191 C 512.495 651.712, 514.985 655, 518.384 655 C 522.636 655, 525.552 649.883, 528.708 636.883 C 531.260 626.369, 531.238 589.892, 528.673 579.117 C 525.485 565.726, 522.672 561, 517.887 561 C 515.643 561, 514.592 561.848, 512.617 565.250" stroke="none" fill="#d4a546" fill-rule="evenodd"/></svg>